<svg width="110" height="49" viewBox="0 0 110 49" fill="none" xmlns="http://www.w3.org/2000/svg">
<path d="M16.575 4.55C17.9917 4.55 19.275 4.675 20.425 4.925C21.575 5.175 22.6667 5.525 23.7 5.975L22.35 9.1C21.5 8.73333 20.6 8.45833 19.65 8.275C18.7 8.09167 17.7167 8 16.7 8C14.8667 8 13.4833 8.35833 12.55 9.075C11.6333 9.79167 11.175 10.8917 11.175 12.375V17.725H20.1L19.65 21.025H11.175V42H6.975V21.025H0.7V17.725H6.975V12.475C6.975 10.8417 7.39167 9.43333 8.225 8.25C9.075 7.06666 10.225 6.15833 11.675 5.525C13.125 4.875 14.7583 4.55 16.575 4.55ZM36.6055 24.5C36.6055 27.1 36.8305 29.4333 37.2805 31.5C37.7305 33.55 38.3971 35.4333 39.2805 37.15C40.1638 38.85 41.2721 40.4667 42.6055 42C43.9555 43.55 45.5221 45.1167 47.3055 46.7L45.1055 49C42.4055 46.7833 40.0888 44.5167 38.1555 42.2C36.2388 39.8833 34.7638 37.3 33.7305 34.45C32.7138 31.6 32.2055 28.2833 32.2055 24.5C32.2055 20.7 32.7138 17.375 33.7305 14.525C34.7638 11.675 36.2388 9.09166 38.1555 6.775C40.0888 4.45833 42.4055 2.2 45.1055 -1.66893e-06L47.3055 2.3C45.5055 3.9 43.9305 5.475 42.5805 7.025C41.2471 8.55833 40.1388 10.175 39.2555 11.875C38.3721 13.5583 37.7055 15.4333 37.2555 17.5C36.8221 19.55 36.6055 21.8833 36.6055 24.5ZM63.5359 42H58.7359L68.4609 28.1L59.9359 15.675H64.9109L71.0109 25.475L77.1859 15.675H81.9859L73.4859 27.925L83.1859 42H78.0359L70.8359 30.7L63.5359 42ZM105.316 24.5C105.316 21.8833 105.091 19.55 104.641 17.5C104.208 15.4333 103.55 13.5583 102.666 11.875C101.783 10.175 100.666 8.55833 99.3164 7.025C97.9831 5.475 96.4164 3.9 94.6164 2.3L96.8164 -1.66893e-06C99.5331 2.2 101.85 4.45833 103.766 6.775C105.683 9.09166 107.15 11.675 108.166 14.525C109.2 17.375 109.716 20.7 109.716 24.5C109.716 28.2833 109.2 31.6 108.166 34.45C107.15 37.3 105.683 39.8833 103.766 42.2C101.85 44.5167 99.5331 46.7833 96.8164 49L94.6164 46.7C96.3997 45.1167 97.9581 43.55 99.2914 42C100.641 40.4667 101.758 38.85 102.641 37.15C103.525 35.4333 104.191 33.55 104.641 31.5C105.091 29.4333 105.316 27.1 105.316 24.5Z" fill="#16647C"/>
</svg>
